<svg width="1200" height="600" viewBox="0 0 1200 600" fill="none" xmlns="http://www.w3.org/2000/svg">
  <defs>
    <radialGradient id="bg-grad" cx="50%" cy="50%" r="60%">
      <stop offset="0%" stop-color="#001529" />
      <stop offset="100%" stop-color="#040404" />
    </radialGradient>
    <pattern id="grid" width="40" height="40" patternUnits="userSpaceOnUse">
      <path d="M 40 0 L 0 0 0 40" fill="none" stroke="#00F2FF" stroke-width="0.5" stroke-opacity="0.1" />
    </pattern>
    <filter id="glow">
      <feGaussianBlur stdDeviation="3" result="blur" />
      <feComposite in="SourceGraphic" in2="blur" operator="over" />
    </filter>
  </defs>

  <!-- Background -->
  <rect width="1200" height="600" fill="url(#bg-grad)" rx="12" />
  <rect width="1200" height="600" fill="url(#grid)" rx="12" />

  <!-- Circuit Decorations -->
  <g stroke="#00F2FF" stroke-opacity="0.1" stroke-width="1" fill="none">
    <path d="M 0 100 H 100 L 130 130 H 250" />
    <path d="M 1200 500 H 1100 L 1070 470 H 950" />
    <path d="M 0 500 H 50 L 80 530 V 600" />
    <path d="M 1200 100 H 1150 L 1120 70 V 0" />
  </g>

  <!-- Repo Card 1 (Top Left) -->
  <g id="repo-0" transform="translate(60, 60)">
    <rect width="520" height="140" rx="8" fill="#1a2a3a" fill-opacity="0.3" stroke="#00F2FF" stroke-opacity="0.2" />
    <path d="M10,25 C10,22 12,20 15,20 H25 C28,20 30,22 30,25" stroke="#00F2FF" stroke-width="2" fill="none"/>
    <rect x="10" y="25" width="20" height="15" rx="2" stroke="#00F2FF" stroke-width="2" fill="none"/>
    <text x="45" y="38" font-family="monospace" font-size="22" font-weight="bold" fill="#00BFFF" filter="url(#glow)">Repo_Name_1</text>
    <text x="15" y="70" font-family="sans-serif" font-size="14" fill="#8B949E" width="490">Repo description goes here. It is short and clear.</text>
    <circle cx="20" cy="110" r="6" fill="#F1E05A"/>
    <text x="35" y="115" font-family="monospace" font-size="14" fill="#C9D1D9">JavaScript</text>
    <text x="130" y="115" font-family="monospace" font-size="14" fill="#00F2FF">★ 12</text>
    <text x="200" y="115" font-family="monospace" font-size="14" fill="#00F2FF">⑂ 5</text>
  </g>

  <!-- Repo Card 2 (Top Right) -->
  <g id="repo-1" transform="translate(620, 60)">
    <rect width="520" height="140" rx="8" fill="#1a2a3a" fill-opacity="0.3" stroke="#00F2FF" stroke-opacity="0.2" />
    <path d="M10,25 C10,22 12,20 15,20 H25 C28,20 30,22 30,25" stroke="#00F2FF" stroke-width="2" fill="none"/>
    <rect x="10" y="25" width="20" height="15" rx="2" stroke="#00F2FF" stroke-width="2" fill="none"/>
    <text x="45" y="38" font-family="monospace" font-size="22" font-weight="bold" fill="#00BFFF" filter="url(#glow)">Repo_Name_2</text>
    <text x="15" y="70" font-family="sans-serif" font-size="14" fill="#8B949E">Repo description goes here. It is short and clear.</text>
    <circle cx="20" cy="110" r="6" fill="#f34b7d"/>
    <text x="35" y="115" font-family="monospace" font-size="14" fill="#C9D1D9">C++</text>
    <text x="90" y="115" font-family="monospace" font-size="14" fill="#00F2FF">★ 8</text>
  </g>

  <!-- Repo Card 3 (Middle Left) -->
  <g id="repo-2" transform="translate(60, 220)">
    <rect width="520" height="140" rx="8" fill="#1a2a3a" fill-opacity="0.3" stroke="#00F2FF" stroke-opacity="0.2" />
    <path d="M10,25 C10,22 12,20 15,20 H25 C28,20 30,22 30,25" stroke="#00F2FF" stroke-width="2" fill="none"/>
    <rect x="10" y="25" width="20" height="15" rx="2" stroke="#00F2FF" stroke-width="2" fill="none"/>
    <text x="45" y="38" font-family="monospace" font-size="22" font-weight="bold" fill="#00BFFF" filter="url(#glow)">Repo_Name_3</text>
    <text x="15" y="70" font-family="sans-serif" font-size="14" fill="#8B949E">Repo description goes here. It is short and clear.</text>
    <circle cx="20" cy="110" r="6" fill="#F1E05A"/>
    <text x="35" y="115" font-family="monospace" font-size="14" fill="#C9D1D9">JavaScript</text>
    <text x="130" y="115" font-family="monospace" font-size="14" fill="#00F2FF">★ 4</text>
  </g>

  <!-- Repo Card 4 (Middle Right) -->
  <g id="repo-3" transform="translate(620, 220)">
    <rect width="520" height="140" rx="8" fill="#1a2a3a" fill-opacity="0.3" stroke="#00F2FF" stroke-opacity="0.2" />
    <path d="M10,25 C10,22 12,20 15,20 H25 C28,20 30,22 30,25" stroke="#00F2FF" stroke-width="2" fill="none"/>
    <rect x="10" y="25" width="20" height="15" rx="2" stroke="#00F2FF" stroke-width="2" fill="none"/>
    <text x="45" y="38" font-family="monospace" font-size="22" font-weight="bold" fill="#00BFFF" filter="url(#glow)">Repo_Name_4</text>
    <text x="15" y="70" font-family="sans-serif" font-size="14" fill="#8B949E">Repo description goes here. It is short and clear.</text>
    <circle cx="20" cy="110" r="6" fill="#563d7c"/>
    <text x="35" y="115" font-family="monospace" font-size="14" fill="#C9D1D9">CSS</text>
    <text x="80" y="115" font-family="monospace" font-size="14" fill="#00F2FF">★ 2</text>
  </g>

  <!-- Repo Card 5 (Bottom Left) -->
  <g id="repo-4" transform="translate(60, 380)">
    <rect width="520" height="140" rx="8" fill="#1a2a3a" fill-opacity="0.3" stroke="#00F2FF" stroke-opacity="0.2" />
    <path d="M10,25 C10,22 12,20 15,20 H25 C28,20 30,22 30,25" stroke="#00F2FF" stroke-width="2" fill="none"/>
    <rect x="10" y="25" width="20" height="15" rx="2" stroke="#00F2FF" stroke-width="2" fill="none"/>
    <text x="45" y="38" font-family="monospace" font-size="22" font-weight="bold" fill="#00BFFF" filter="url(#glow)">Repo_Name_5</text>
    <text x="15" y="70" font-family="sans-serif" font-size="14" fill="#8B949E">Repo description goes here. It is short and clear.</text>
    <circle cx="20" cy="110" r="6" fill="#f34b7d"/>
    <text x="35" y="115" font-family="monospace" font-size="14" fill="#C9D1D9">C++</text>
    <text x="90" y="115" font-family="monospace" font-size="14" fill="#00F2FF">★ 3</text>
  </g>

  <!-- Repo Card 6 (Bottom Right) -->
  <g id="repo-5" transform="translate(620, 380)">
    <rect width="520" height="140" rx="8" fill="#1a2a3a" fill-opacity="0.3" stroke="#00F2FF" stroke-opacity="0.2" />
    <path d="M10,25 C10,22 12,20 15,20 H25 C28,20 30,22 30,25" stroke="#00F2FF" stroke-width="2" fill="none"/>
    <rect x="10" y="25" width="20" height="15" rx="2" stroke="#00F2FF" stroke-width="2" fill="none"/>
    <text x="45" y="38" font-family="monospace" font-size="22" font-weight="bold" fill="#00BFFF" filter="url(#glow)">Repo_Name_6</text>
    <text x="15" y="70" font-family="sans-serif" font-size="14" fill="#8B949E">Repo description goes here. It is short and clear.</text>
    <circle cx="20" cy="110" r="6" fill="#f34b7d"/>
    <text x="35" y="115" font-family="monospace" font-size="14" fill="#C9D1D9">C++</text>
    <text x="90" y="115" font-family="monospace" font-size="14" fill="#00F2FF">★ 10</text>
  </g>

  <!-- Footer Button -->
  <g transform="translate(600, 560)">
    <path d="M-150,0 H150" stroke="#00F2FF" stroke-opacity="0.3" />
    <text x="0" y="20" text-anchor="middle" font-family="monospace" font-size="14" font-weight="bold" fill="#00F2FF">⚡ EXPLORE ALL REPOSITORIES</text>
  </g>
</svg>
